<?xml version="1.0" encoding="UTF-8"?>
<svg version="1.1" xmlns="http://www.w3.org/2000/svg" width="500" height="500">
<path d="M0 0 C165 0 330 0 500 0 C500 165 500 330 500 500 C335 500 170 500 0 500 C0 335 0 170 0 0 Z " fill="#E3E1DC" transform="translate(0,0)"/>
<path d="M0 0 C2.47632912 1.17836055 3.89762389 2.14697206 5.62109375 4.2890625 C7.37669453 9.87652251 7.46458992 15.36115348 4.99609375 20.7265625 C1.64811301 26.29113738 -3.1588288 31.21570335 -9.37890625 33.2890625 C-11.06436349 33.38194021 -12.75339925 33.41903454 -14.44140625 33.4140625 C-15.75818359 33.41792969 -15.75818359 33.41792969 -17.1015625 33.421875 C-19.37890625 33.2890625 -19.37890625 33.2890625 -21.37890625 32.2890625 C-21.04890625 35.9190625 -20.71890625 39.5490625 -20.37890625 43.2890625 C-19.71890625 42.4640625 -19.05890625 41.6390625 -18.37890625 40.7890625 C-15.28819884 38.21347299 -13.54559045 37.41161503 -9.50390625 37.671875 C-3.90287188 39.29864601 -0.20712797 43.86555642 2.62109375 48.7265625 C2.95109375 49.5721875 3.28109375 50.4178125 3.62109375 51.2890625 C3.97300781 50.72058594 4.32492187 50.15210938 4.6875 49.56640625 C12.0553403 38.04333487 20.12828648 31.54743192 33.62109375 28.2890625 C44.10304633 27.36164694 54.07907082 27.61777032 62.9296875 33.9375 C68.44829895 38.5751588 72.54583133 43.45325156 75.30859375 50.1640625 C75.72496094 51.15148437 76.14132812 52.13890625 76.5703125 53.15625 C81.24000459 67.07852902 80.30292187 86.44538108 75.62109375 100.2890625 C75.34265625 101.17335938 75.06421875 102.05765625 74.77734375 102.96875 C70.8817638 114.01742072 63.90241169 121.04388204 53.609375 126.3203125 C45.14468568 129.80292753 33.611049 129.78950104 25.05859375 126.6640625 C14.95468582 121.75596652 10.46522482 114.40875837 6.78320312 103.89697266 C6.0482687 101.69862372 5.32660314 99.4970114 4.62109375 97.2890625 C4.4509375 98.5678125 4.28078125 99.8465625 4.10546875 101.1640625 C3.86140623 102.87250016 3.61657339 104.58082789 3.37109375 106.2890625 C3.20673828 107.54783203 3.20673828 107.54783203 3.0390625 108.83203125 C2.01908027 115.75717375 0.10711788 121.52681346 -4.62890625 126.7890625 C-8.25844899 128.76881309 -11.39016503 129.20412666 -15.37890625 128.2890625 C-19.18064874 126.13246866 -21.97063506 122.90146928 -24.37890625 119.2890625 C-24.89453125 120.0315625 -25.41015625 120.7740625 -25.94140625 121.5390625 C-29.50706376 125.56185559 -33.00348326 127.90123834 -38.44140625 128.7890625 C-43.16696951 127.98471131 -45.95223711 126.1150538 -48.9140625 122.32421875 C-55.70556871 111.8851005 -58.62931786 99.29336303 -61.37890625 87.2890625 C-62.96258372 87.43110991 -64.54583943 87.57786403 -66.12890625 87.7265625 C-67.010625 87.80777344 -67.89234375 87.88898438 -68.80078125 87.97265625 C-71.07241077 88.25144715 -73.17742448 88.67696827 -75.37890625 89.2890625 C-75.53746094 90.23265625 -75.69601562 91.17625 -75.859375 92.1484375 C-77.897363 103.36300129 -80.00080072 114.86472895 -89.37890625 122.2890625 C-93.29325259 124.72230482 -96.79555054 124.44484755 -101.2265625 123.84765625 C-104.25785624 123.06095025 -106.12604278 121.40538879 -108.37890625 119.2890625 C-109.03890625 119.2890625 -109.69890625 119.2890625 -110.37890625 119.2890625 C-111.16265625 120.0728125 -111.94640625 120.8565625 -112.75390625 121.6640625 C-116.21058186 125.12073811 -117.93853753 126.07567454 -122.75390625 126.7890625 C-127.45272098 126.14095012 -129.58526334 123.91742083 -132.37890625 120.2890625 C-133.75408364 117.62237375 -134.70964948 114.8908477 -135.62890625 112.0390625 C-137.23098481 106.73078796 -137.23098481 106.73078796 -140.37890625 102.2890625 C-145.76402537 100.93853578 -151.24163414 101.17545013 -156.75390625 101.2265625 C-158.14416016 101.23333008 -158.14416016 101.23333008 -159.5625 101.24023438 C-161.83470334 101.25194676 -164.10677013 101.26834878 -166.37890625 101.2890625 C-168.63914581 105.44640065 -169.92737818 109.15065517 -170.81640625 113.7890625 C-171.93047518 118.87780443 -172.90457084 122.39359552 -176.37890625 126.2890625 C-180.85028517 129.02527945 -185.28459361 128.92966469 -190.37890625 128.2890625 C-194.28931892 126.91653355 -197.44542007 125.22254868 -200.37890625 122.2890625 C-201.10078125 122.9078125 -201.82265625 123.5265625 -202.56640625 124.1640625 C-210.92480328 130.47929581 -221.07585363 128.68314088 -230.94140625 127.4765625 C-244.54925283 125.44449478 -254.89192392 122.69413989 -264.37890625 112.2890625 C-264.77078125 113.5059375 -265.16265625 114.7228125 -265.56640625 115.9765625 C-267.68648143 121.53194468 -270.53237921 124.31543915 -275.81640625 127.1015625 C-285.88199853 130.39989217 -297.00093553 128.82012867 -306.37890625 124.2890625 C-320.88758616 115.78109237 -330.48047172 104.5986977 -334.90625 88.03515625 C-337.64689516 72.11223435 -333.58114536 57.3678354 -324.37890625 44.2890625 C-314.65568801 31.94267387 -301.19334343 22.02354731 -285.37890625 19.2890625 C-277.83747927 18.68708607 -272.07384112 18.49773198 -265.37890625 22.2890625 C-264.59515625 22.6809375 -263.81140625 23.0728125 -263.00390625 23.4765625 C-262.46765625 23.7446875 -261.93140625 24.0128125 -261.37890625 24.2890625 C-260.9921875 23.80695313 -260.60546875 23.32484375 -260.20703125 22.828125 C-259.68625 22.19648438 -259.16546875 21.56484375 -258.62890625 20.9140625 C-257.86320312 19.97433594 -257.86320312 19.97433594 -257.08203125 19.015625 C-254.24252522 16.1370432 -252.00740944 15.35889619 -248.00390625 14.9140625 C-243.55522594 15.37427081 -241.74959677 16.35802726 -238.37890625 19.2890625 C-230.75246783 28.81157677 -231.08115985 39.21416865 -231.19140625 50.8515625 C-231.19827079 52.32088055 -231.20477827 53.79020031 -231.2109375 55.25952148 C-231.28288067 67.28370524 -231.70050082 79.2837092 -232.37890625 91.2890625 C-231.79302734 91.28616211 -231.20714844 91.28326172 -230.60351562 91.28027344 C-219.18283642 91.24748232 -208.46268989 91.3901202 -199.37890625 99.2890625 C-199.31703125 98.1546875 -199.25515625 97.0203125 -199.19140625 95.8515625 C-198.5032919 89.58972192 -196.53325295 83.69005024 -194.703125 77.69140625 C-193.49457778 73.72491448 -192.41953467 69.74041497 -191.37890625 65.7265625 C-181.63417283 28.8609445 -181.63417283 28.8609445 -170.12890625 20.69140625 C-163.68974217 16.98682307 -157.69889163 16.34489047 -150.37890625 17.2890625 C-143.83348261 19.34965883 -140.12525245 24.00671432 -136.984375 29.91015625 C-132.89272604 38.93883619 -129.93196492 48.3896132 -126.85644531 57.80004883 C-124.02842247 66.44156232 -121.00019835 74.98839748 -117.76611328 83.48632812 C-117.29407471 84.74799805 -117.29407471 84.74799805 -116.8125 86.03515625 C-116.53462646 86.76404053 -116.25675293 87.4929248 -115.97045898 88.24389648 C-115.37890625 90.2890625 -115.37890625 90.2890625 -115.37890625 94.2890625 C-114.71890625 94.2890625 -114.05890625 94.2890625 -113.37890625 94.2890625 C-113.40210938 93.56203125 -113.4253125 92.835 -113.44921875 92.0859375 C-113.46726563 91.08046875 -113.4853125 90.075 -113.50390625 89.0390625 C-113.52710938 88.06453125 -113.5503125 87.09 -113.57421875 86.0859375 C-113.41459242 82.98280156 -113.0122645 80.36830805 -112.40234375 77.34765625 C-110.44583797 66.19609319 -110.95869199 54.67649297 -110.84716797 43.3894043 C-110.81323287 40.26857019 -110.76819741 37.1480267 -110.72265625 34.02734375 C-110.71737915 33.08337234 -110.71210205 32.13940094 -110.70666504 31.16682434 C-110.5634277 21.53997401 -109.52943126 13.25016962 -102.37890625 6.2890625 C-95.45243687 1.55433597 -87.42272033 -0.10343694 -79.12890625 -0.0859375 C-78.35893311 -0.08505127 -77.58895996 -0.08416504 -76.7956543 -0.08325195 C-65.70745794 0.13705815 -53.26343658 2.02474497 -43.37890625 7.2890625 C-41.7421875 9.5234375 -41.7421875 9.5234375 -40.69140625 12.0390625 C-40.30210937 12.91820312 -39.9128125 13.79734375 -39.51171875 14.703125 C-38.95097656 15.98316406 -38.95097656 15.98316406 -38.37890625 17.2890625 C-37.09842535 19.65753371 -35.74205605 21.96665913 -34.37890625 24.2890625 C-40.31806309 26.79616559 -46.08168068 28.88967904 -52.37890625 30.2890625 C-52.37890625 30.9490625 -52.37890625 31.6090625 -52.37890625 32.2890625 C-51.33089844 31.91652344 -50.28289062 31.54398438 -49.203125 31.16015625 C-47.82438324 30.68181727 -46.44546782 30.20397867 -45.06640625 29.7265625 C-44.0309668 29.3562793 -44.0309668 29.3562793 -42.97460938 28.97851562 C-37.71875 27.17578125 -37.71875 27.17578125 -34.37890625 28.2890625 C-37.84390625 38.1890625 -37.84390625 38.1890625 -41.37890625 48.2890625 C-40.71890625 48.2890625 -40.05890625 48.2890625 -39.37890625 48.2890625 C-39.00765625 46.3709375 -39.00765625 46.3709375 -38.62890625 44.4140625 C-37.46726064 39.1193155 -35.51550359 34.25716991 -33.37890625 29.2890625 C-32.38890625 29.2890625 -31.39890625 29.2890625 -30.37890625 29.2890625 C-28.9921875 30.96875 -28.9921875 30.96875 -27.69140625 33.1640625 C-27.25441406 33.88335937 -26.81742187 34.60265625 -26.3671875 35.34375 C-25.37890625 37.2890625 -25.37890625 37.2890625 -25.37890625 39.2890625 C-24.71890625 39.2890625 -24.05890625 39.2890625 -23.37890625 39.2890625 C-23.89582031 38.45761719 -24.41273438 37.62617188 -24.9453125 36.76953125 C-25.60402344 35.68285156 -26.26273437 34.59617188 -26.94140625 33.4765625 C-27.60269531 32.39761719 -28.26398438 31.31867188 -28.9453125 30.20703125 C-30.37890625 27.2890625 -30.37890625 27.2890625 -29.37890625 24.2890625 C-27.41796875 23.33984375 -27.41796875 23.33984375 -25.00390625 22.6015625 C-24.21242188 22.35019531 -23.4209375 22.09882813 -22.60546875 21.83984375 C-20.37890625 21.2890625 -20.37890625 21.2890625 -17.37890625 21.2890625 C-17.37890625 20.6290625 -17.37890625 19.9690625 -17.37890625 19.2890625 C-18.14976562 19.5778125 -18.920625 19.8665625 -19.71484375 20.1640625 C-20.71773438 20.5353125 -21.720625 20.9065625 -22.75390625 21.2890625 C-23.75164062 21.6603125 -24.749375 22.0315625 -25.77734375 22.4140625 C-28.37890625 23.2890625 -28.37890625 23.2890625 -30.37890625 23.2890625 C-30.04890625 21.9690625 -29.71890625 20.6490625 -29.37890625 19.2890625 C-28.71890625 19.2890625 -28.05890625 19.2890625 -27.37890625 19.2890625 C-27.33765625 18.4846875 -27.29640625 17.6803125 -27.25390625 16.8515625 C-25.67442337 10.42081079 -22.04039098 5.09034065 -16.62890625 1.2265625 C-11.15603177 -1.77098516 -5.89750285 -1.76247211 0 0 Z " fill="#2C2C2C" transform="translate(361.37890625,180.7109375)"/>
<path d="M0 0 C0 17.82 0 35.64 0 54 C-4.455 52.02 -4.455 52.02 -9 50 C-11.88834647 49.41710293 -14.65517217 48.93611377 -17.5625 48.5625 C-23.95051494 47.5820819 -29.05305005 46.42692017 -34 42 C-35.2375 40.948125 -35.2375 40.948125 -36.5 39.875 C-38.90405368 35.26723044 -38.89074864 31.07250752 -38 26 C-35.3669537 19.50577273 -31.09605132 13.60165906 -25 10 C-22.65872781 9.15932776 -20.31752359 8.5321356 -17.90625 7.921875 C-12.93505467 6.34499046 -8.42347451 3.82691008 -3.80859375 1.42578125 C-1 0 -1 0 0 0 Z " fill="#E1DFDA" transform="translate(95,227)"/>
<path d="M0 0 C3.14659982 2.39918894 4.75023078 5.25069235 6 9 C6.92983486 21.9161095 7.6754454 36.49679014 -1 47 C-4.75456567 49.50304378 -6.54745934 49.45280074 -11 49 C-15.47433755 47.15762572 -17.4486842 44.80548478 -19.375 40.5 C-21.15281614 34.96486655 -21.42061311 29.57916394 -21.5 23.8125 C-21.51853027 22.96945312 -21.53706055 22.12640625 -21.55615234 21.2578125 C-21.48707498 14.35549387 -19.73930413 9.14404072 -15.17578125 3.90625 C-10.38602233 0.2913376 -6.0223715 -1.75509112 0 0 Z " fill="#E1DFDA" transform="translate(411,239)"/>
<path d="M0 0 C4.03696754 1.21670583 6.93891011 3.00522823 10 5.875 C11.37983006 8.80713887 11.39296493 10.79078637 11 14 C8.85373085 18.73396953 5.67978244 20.79037089 1.25 23.1875 C0.35667969 23.70086914 0.35667969 23.70086914 -0.5546875 24.22460938 C-4.60993748 26.4848407 -8.49748108 27.87437027 -13 29 C-17.37742382 11.38608033 -17.37742382 11.38608033 -16 3 C-12.72217738 -2.20396581 -5.32743726 -0.57236929 0 0 Z " fill="#E1DFDA" transform="translate(296,216)"/>
<path d="M0 0 C1.46573934 0.90477737 2.92235756 1.82434141 4.375 2.75 C5.18710937 3.26046875 5.99921875 3.7709375 6.8359375 4.296875 C9.11247822 6.08852076 9.83429849 7.40713122 11 10 C11.66 10.33 12.32 10.66 13 11 C12.34 12.32 11.68 13.64 11 15 C11.68707031 14.71125 12.37414062 14.4225 13.08203125 14.125 C13.98308594 13.75375 14.88414062 13.3825 15.8125 13 C16.70582031 12.62875 17.59914063 12.2575 18.51953125 11.875 C21 11 21 11 24 11 C24 11.66 24 12.32 24 13 C20.04 14.32 16.08 15.64 12 17 C13.30147889 20.25369723 14.36520777 22.7871017 16.125 25.6875 C18 29 18 29 18 31 C17.34 31 16.68 31 16 31 C14.4921875 28.8125 14.4921875 28.8125 12.875 26 C12.33617187 25.071875 11.79734375 24.14375 11.2421875 23.1875 C10.83226562 22.465625 10.42234375 21.74375 10 21 C7.91855733 23.08144267 7.42631862 24.19289793 6.4921875 26.9140625 C6.22792969 27.67460937 5.96367187 28.43515625 5.69140625 29.21875 C5.42199219 30.0128125 5.15257812 30.806875 4.875 31.625 C4.59785156 32.42679688 4.32070313 33.22859375 4.03515625 34.0546875 C3.35158852 36.03467679 2.67511573 38.01711292 2 40 C1.34 40 0.68 40 0 40 C0.63242669 35.27497299 1.91813563 31.09429803 3.5625 26.625 C3.79646484 25.98433594 4.03042969 25.34367187 4.27148438 24.68359375 C4.84299619 23.1206839 5.42084229 21.56009273 6 20 C5.27554687 20.20496094 4.55109375 20.40992188 3.8046875 20.62109375 C-1.10960129 21.99054223 -5.93341513 23.31532637 -11 24 C-11 23.34 -11 22.68 -11 22 C-5.39 20.02 0.22 18.04 6 16 C4.02 12.535 4.02 12.535 2 9 C1.3125 5.75 1.3125 5.75 1 3 C0.67 2.01 0.34 1.02 0 0 Z " fill="#C9C8C3" transform="translate(320,189)"/>
<path d="M0 0 C1.33105859 3.82732501 0.85252496 7.44503186 0.44140625 11.390625 C0.33940163 12.44754547 0.33940163 12.44754547 0.2353363 13.52581787 C0.01746798 15.76789508 -0.20988015 18.0088939 -0.4375 20.25 C-0.58721556 21.77337601 -0.73631118 23.29681308 -0.88476562 24.8203125 C-1.24933057 28.54762077 -1.62239815 32.27399081 -2 36 C-4.45678748 32.76306636 -6.68539206 29.46575632 -8.8125 26 C-9.45832031 24.96875 -10.10414063 23.9375 -10.76953125 22.875 C-12 20 -12 20 -11.4140625 17.9296875 C-10.94742187 17.29289062 -10.48078125 16.65609375 -10 16 C-9.46503906 15.21882812 -8.93007813 14.43765625 -8.37890625 13.6328125 C-7.77949219 12.80523437 -7.18007813 11.97765625 -6.5625 11.125 C-3.99828876 7.51373583 -1.80650445 4.03806877 0 0 Z " fill="#DDDBD6" transform="translate(337,233)"/>
<path d="M0 0 C0 0.66 0 1.32 0 2 C-3.96 3.32 -7.92 4.64 -12 6 C-10.69852111 9.25369723 -9.63479223 11.7871017 -7.875 14.6875 C-6 18 -6 18 -6 20 C-6.66 20 -7.32 20 -8 20 C-9.5078125 17.8125 -9.5078125 17.8125 -11.125 15 C-11.66382813 14.071875 -12.20265625 13.14375 -12.7578125 12.1875 C-13.16773438 11.465625 -13.57765625 10.74375 -14 10 C-16.08144267 12.08144267 -16.57368138 13.19289793 -17.5078125 15.9140625 C-17.77207031 16.67460937 -18.03632813 17.43515625 -18.30859375 18.21875 C-18.71271484 19.40984375 -18.71271484 19.40984375 -19.125 20.625 C-19.40214844 21.42679688 -19.67929687 22.22859375 -19.96484375 23.0546875 C-20.64841148 25.03467679 -21.32488427 27.01711292 -22 29 C-22.66 29 -23.32 29 -24 29 C-23.34301259 24.28429035 -22.13200334 19.87806952 -20.625 15.375 C-20.31175781 14.39273438 -20.31175781 14.39273438 -19.9921875 13.390625 C-18.79750123 9.79199685 -17.72883024 6.67898859 -15 4 C-12.1875 2.734375 -12.1875 2.734375 -9 1.75 C-7.948125 1.41484375 -6.89625 1.0796875 -5.8125 0.734375 C-3 0 -3 0 0 0 Z " fill="#CCCBC6" transform="translate(344,200)"/>
<path d="M0 0 C0.66 0 1.32 0 2 0 C2.50512244 1.60256108 3.00391627 3.20711792 3.5 4.8125 C3.7784375 5.70582031 4.056875 6.59914062 4.34375 7.51953125 C5 10 5 10 5 13 C2.36 13.33 -0.28 13.66 -3 14 C-2.40380045 9.13103697 -1.43023178 4.67209049 0 0 Z " fill="#D2D0CB" transform="translate(206,244)"/>
<path d="M0 0 C1.46573934 0.90477737 2.92235756 1.82434141 4.375 2.75 C5.18710937 3.26046875 5.99921875 3.7709375 6.8359375 4.296875 C9.10900022 6.08578357 10.07756638 7.27662455 11 10 C10.125 12.25 10.125 12.25 9 14 C5.15237434 10.5798883 2.39365978 6.53225744 0 2 C0 1.34 0 0.68 0 0 Z " fill="#3D3D3D" transform="translate(320,189)"/>
</svg>
